<svg xmlns="http://www.w3.org/2000/svg" width="920" height="520" viewBox="0 0 920 520">
<rect x="0" y="0" width="920" height="520" fill="#ffffff" />
<line x1="100" y1="420" x2="880" y2="420" stroke="#222" stroke-width="2" />
<line x1="100" y1="420" x2="100" y2="40" stroke="#222" stroke-width="2" />
<line x1="100" y1="420.00" x2="880" y2="420.00" stroke="#e6e6e6" />
<text x="88" y="424.00" font-size="14" text-anchor="end" fill="#222">0.00</text>
<line x1="100" y1="325.00" x2="880" y2="325.00" stroke="#e6e6e6" />
<text x="88" y="329.00" font-size="14" text-anchor="end" fill="#222">0.25</text>
<line x1="100" y1="230.00" x2="880" y2="230.00" stroke="#e6e6e6" />
<text x="88" y="234.00" font-size="14" text-anchor="end" fill="#222">0.50</text>
<line x1="100" y1="135.00" x2="880" y2="135.00" stroke="#e6e6e6" />
<text x="88" y="139.00" font-size="14" text-anchor="end" fill="#222">0.75</text>
<line x1="100" y1="40.00" x2="880" y2="40.00" stroke="#e6e6e6" />
<text x="88" y="44.00" font-size="14" text-anchor="end" fill="#222">1.00</text>
<rect x="131.20" y="150.70" width="93.60" height="269.30" fill="#d62728" opacity="0.85" />
<text x="178.00" y="438" font-size="13" text-anchor="end" transform="rotate(-35 178.00 438)" fill="#222">adaptive_halting</text>
<text x="178.00" y="142.70" font-size="13" text-anchor="middle" fill="#222">0.71</text>
<rect x="287.20" y="372.50" width="93.60" height="47.50" fill="#1f77b4" opacity="0.85" />
<text x="334.00" y="438" font-size="13" text-anchor="end" transform="rotate(-35 334.00 438)" fill="#222">fixed_k_1</text>
<text x="334.00" y="364.50" font-size="13" text-anchor="middle" fill="#222">0.12</text>
<rect x="443.20" y="325.00" width="93.60" height="95.00" fill="#1f77b4" opacity="0.85" />
<text x="490.00" y="438" font-size="13" text-anchor="end" transform="rotate(-35 490.00 438)" fill="#222">fixed_k_2</text>
<text x="490.00" y="317.00" font-size="13" text-anchor="middle" fill="#222">0.25</text>
<rect x="599.20" y="230.00" width="93.60" height="190.00" fill="#1f77b4" opacity="0.85" />
<text x="646.00" y="438" font-size="13" text-anchor="end" transform="rotate(-35 646.00 438)" fill="#222">fixed_k_4</text>
<text x="646.00" y="222.00" font-size="13" text-anchor="middle" fill="#222">0.50</text>
<rect x="755.20" y="40.00" width="93.60" height="380.00" fill="#1f77b4" opacity="0.85" />
<text x="802.00" y="438" font-size="13" text-anchor="end" transform="rotate(-35 802.00 438)" fill="#222">fixed_k_8</text>
<text x="802.00" y="32.00" font-size="13" text-anchor="middle" fill="#222">1.00</text>
<text x="460" y="28" font-size="22" text-anchor="middle" fill="#111">Token Usage by Method</text>
<text x="28" y="230.00" font-size="16" text-anchor="middle" fill="#222" transform="rotate(-90 28 230.00)">Token ratio (avg K / Kmax)</text>
</svg>
